<svg id="Layer_1" data-name="Layer 1" xmlns="http://www.w3.org/2000/svg" width="64" height="64" viewBox="0 0 64 64"><defs><style>.cls-1{fill:#666;}</style></defs><title>medical_kit</title><path class="cls-1" d="M59,14H52V13a1,1,0,0,0-1-1H49a1,1,0,0,0-1,1v1H16V13a1,1,0,0,0-1-1H13a1,1,0,0,0-1,1v1H5a1,1,0,0,0-1,1V57a1,1,0,0,0,1,1H59a1,1,0,0,0,1-1V15A1,1,0,0,0,59,14ZM58,56H6V16H58V56Z"/><path class="cls-1" d="M26,12a2,2,0,0,1,2-2h8a2,2,0,0,1,2,2,1,1,0,1,0,2,0,4,4,0,0,0-4-4H28a4,4,0,0,0-4,4A1,1,0,1,0,26,12Z"/><path class="cls-1" d="M45,32H36V23a1,1,0,0,0-1-1H29a1,1,0,0,0-1,1v9H19a1,1,0,0,0-1,1v6a1,1,0,0,0,1,1h9v9a1,1,0,0,0,1,1h6a1,1,0,0,0,1-1V40h9a1,1,0,0,0,1-1V33A1,1,0,0,0,45,32Zm-1,6H35a1,1,0,0,0-1,1v9H30V39a1,1,0,0,0-1-1H20V34h9a1,1,0,0,0,1-1V24h4v9a1,1,0,0,0,1,1h9v4Z"/></svg>