<?xml version="1.0" encoding="UTF-8"?>
<svg width="24px" height="24px" viewBox="0 0 24 24" version="1.1" xmlns="http://www.w3.org/2000/svg" xmlns:xlink="http://www.w3.org/1999/xlink">
    <!-- Generator: Sketch 48.2 (47327) - http://www.bohemiancoding.com/sketch -->
    <title>Emoji</title>
    <desc>Created with Sketch.</desc>
    <defs></defs>
    <g id="iPhone-X" stroke="none" stroke-width="1" fill="none" fill-rule="evenodd" transform="translate(-85.000000, -286.000000)">
        <path d="M97,286 C103.627417,286 109,291.372583 109,298 C109,304.627417 103.627417,310 97,310 C90.372583,310 85,304.627417 85,298 C85,291.372583 90.372583,286 97,286 Z M97,287.398 C102.855167,287.398663 107.601242,292.145633 107.6008,298.0008 C107.600358,303.855967 102.853567,308.602221 96.9984,308.602 C91.1432333,308.601779 86.3968,303.855167 86.3968,298 C86.3968796,295.187991 87.5140631,292.491195 89.502566,290.502917 C91.491069,288.51464 94.1879913,287.397761 97,287.398 Z M93.2038,292.795 C92.8328936,292.790581 92.4757063,292.935085 92.2122077,293.196158 C91.9487092,293.457232 91.8009098,293.813069 91.8019,294.184 C91.8019,294.958248 92.429552,295.5859 93.2038,295.5859 C93.978048,295.5859 94.6057,294.958248 94.6057,294.184 C94.6066902,293.813069 94.4588908,293.457232 94.1953923,293.196158 C93.9318937,292.935085 93.5747064,292.790581 93.2038,292.795 Z M104.9971,300.067 C104.3581,303.52 101.0254,306.403 96.9985,306.403 C93.0037,306.403 89.6905,303.562 89.014,300.148 C88.8769,299.296 89.5747,299.095 90.232,299.254 C92.4308704,299.88979 94.7112173,300.199092 97,300.172 C99.2836089,300.198477 101.558775,299.890202 103.753,299.257 C104.392,299.095 105.0763,299.278 104.9971,300.067 Z M102.8278,300.547 C102.7654,300.571 102.7021,300.589 102.6382,300.61 C102.6316,300.613 102.8428,300.544 102.8365,300.547 C100.939091,301.069345 98.977763,301.322817 97.0099,301.3 C94.6615,301.3 92.5612,301.039 91.1158,300.52 C90.0679,300.208 90.2689,301.441 91.0054,301.819 C92.8895613,302.676755 94.9395199,303.108994 97.0096,303.085 C99.472,303.085 101.6662,302.512 103.1155,301.771 C103.8013,301.33 103.9369,300.148 102.8278,300.547 Z M100.804,292.795 C100.433066,292.790582 100.075849,292.935076 99.8123027,293.196141 C99.5487567,293.457206 99.4008903,293.813041 99.4018,294.184 C99.3944012,294.689792 99.6600004,295.160362 100.096838,295.415417 C100.533675,295.670473 101.074025,295.670473 101.510862,295.415417 C101.9477,295.160362 102.213299,294.689792 102.2059,294.184 C102.206809,293.813094 102.058983,293.457305 101.795503,293.196249 C101.532022,292.935193 101.174882,292.790663 100.804,292.795 Z" id="Emoji" fill="#9B9B9B"></path>
    </g>
</svg>